<?xml version="1.0" encoding="utf-8"?>
<!-- Generator: Adobe Illustrator 23.0.1, SVG Export Plug-In . SVG Version: 6.00 Build 0)  -->
<svg version="1.1" id="Layer_1" xmlns="http://www.w3.org/2000/svg" xmlns:xlink="http://www.w3.org/1999/xlink" x="0px" y="0px"
	 viewBox="0 0 6229.6 4194.5" style="enable-background:new 0 0 6229.6 4194.5;" xml:space="preserve">
<style type="text/css">
	.st0{fill:#0872BA;}
	.st1{fill:#FFFFFF;}
	.st2{fill:#F5BFAD;}
	.st3{fill:#2B368D;}
	.st4{fill:#FDD8CB;}
</style>
<polygon class="st0" points="5305.73,4172.64 4860.27,3786.27 5151.18,3513.55 5419.36,3186.27 5637.55,2818.09 5760.27,2509 
	6219.36,2868.09 "/>
<path d="M2302,4182l-83.3-83.3l-69.6,70c-33.2,33.4-42.4,33.5-75.6,0.1l-69.6-70.1l-84.9,84.9c-12.8,12.8-33.5,12.8-46.3,0
	l-84.9-84.9l-69.3,69.7c-34,34.2-42.8,33.7-76.6-0.4l-68.9-69.4l-84.9,84.9c-12.8,12.8-33.5,12.8-46.3,0l-84.9-84.9l-71.2,71.7
	c-31.1,31.3-41.4,31.1-72.5-0.2l-71.1-71.6l-84.9,84.9c-12.8,12.8-33.5,12.8-46.3,0l-84.9-84.9l-72.5,73
	c-27.5,27.7-39.6,30.4-68,1.8l-74.3-74.8l-84.9,84.9c-12.8,12.8-33.5,12.8-46.3,0l-84.9-84.9l-72.2,72.7c-28.4,28.6-40,30.6-69,1.4
	l-73.6-74.1l-84.6,84.6c-6,6.9-14.9,11.3-24.7,11.3H98.3c-54.1,0-98.3-44.2-98.3-98.3V99C0,44.9,44.2,0.7,98.3,0.7H170
	c0.4,0,0.7,0,1.1,0c8.7-0.3,17.5,2.9,24.1,9.6l60.3,60.3c30,30,24.5,26.5,50.9-1.8l41.1-41.4c35.4-35.6,43.3-37,78.9-1.1l50.6,51
	c21.6,21.7,14.6,21.2,36.5-0.7l66.3-66.3c12.8-12.8,33.5-12.8,46.3,0L692.8,77c21.9,21.9,14.8,21.7,36.8-0.5l52.7-53.1
	c31.6-31.9,41.7-30.6,73.1,0.9l53.7,54.1c20.4,20.6,13.8,19.7,34.8-1.3l66.8-66.8c12.8-12.8,33.5-12.8,46.3,0l65.5,65.4
	c23.3,23.3,15.8,23.2,39.1-0.3l52.2-52.5c30.6-30.8,41.2-30.2,71.7,0.5l52,52.4c22.9,23,15.5,23.2,38.4,0.3l65.8-65.8
	c12.8-12.8,33.5-12.8,46.3,0l62,62c28.4,28,19.3,27.8,47.5-0.6l40.2-40.4c34.2-34.4,50-36.8,86.8,0.3l40.3,40.6
	c27.1,27.3,18.4,27.5,45.5,0.4l62.3-62.3c12.8-12.8,33.5-12.8,46.3,0l58.4,58.4c32.6,32.6,22.1,30.9,55.5-2.8l36.8-37.1
	c38.2-38.5,44.7-38.7,82.9-0.2l41,41.2c30.1,30.3,20.3,30,50.7-0.4l59.3-59.3c12.1-12.1,28.9-9.6,44.6-9.6h82.7
	c54.1,0,98.3,44.2,98.3,98.3v1088.1c177.4-107.7,423.3-233.3,628.4-266.7c290.9-47.3,720.5-83.9,1012.1-73.6
	c292.9,10.4,415,95.1,586.2,316c317.9,409.9,535.3,899.3,848.7,1322.6c21.5-14.5,41.1-25.2,58.6-31.8c59.1-22.1,76.1,2.5,115.3,34.3
	l438.8,357c33.3,27.1-7.9,77.8-41.2,50.7l-407.2-331.3c-4.7,31.2-15.4,67.4-31.3,107.4c-117.8,297.5-418,702.9-634.6,933.8
	c-79.9,85.2-154,148.9-212.9,177.6l417.1,339.4c33.3,27.1-7.9,77.8-41.2,50.7l-470.3-382.6c-23.1-15.1-33.1-42.3-31.1-79.6
	c1.3-25,8.1-56,20-92c-310.2-196.7-507.1-408.4-652.3-564.4c-37-39.7-70.5-75.8-101.4-106.7c-58.6-58.6-34.4-36.2-100.7,6.7
	c-13,8.4-26.4,15.9-39.9,22.7c-53.3,26.6-31.2,8.7-37.5,67.8c-22.9,213.3-311.3,272.1-444.9,24.5
	c-112.4-208.3-14.4-315.4,100.3-475.3c29.7-41.5,36.6-38.7-2.3-61.9c-6.3-3.7-12.7-7.5-19.2-11.2c-38.1-21.9-40.7-0.1-64.2,41.3
	c-34.1,60.2-59.7,136.4-84.4,210.2c-31.7,94.7-62.2,185.6-110.1,243.4c-147.2,177.6-390,115.6-353.9-151.6
	c5.1-37.5,14.3-72.8,23.8-98.4c32.4-87.4,49.7-231.5,78.4-329.3c8.2-28,17.4-56,27.8-83.4c16-42.2,28.3-39.2-16.2-55.2
	c-23.8-8.5-26-1.9-55.7,37.8c-22.4,29.9-47.9,68.5-75.6,110.3c-89.8,135.6-200.6,303-327.4,354.3v1295.5c0,54.1-44.2,98.3-98.3,98.3
	h-103.1C2317.3,4194.5,2308,4189.6,2302,4182z"/>
<path class="st1" d="M2111.3,4114.1l72.1-72.6v-0.1c22.5-22.5,48.1-22.4,70.6,0h0.1l87.6,87.6h89.2c17.9,0,32.8-14.8,32.8-32.8
	V2115.3c-114.6-43-196.6-103.5-245.7-173.2c-139.8-198.4-23.2-392.4,190.6-424.2c63.8-9.5,57.3,7.5,55.2-69.2V99
	c0-18-14.8-32.8-32.8-32.8h-62.9c-32.5,0-24.8-2.8-47.8,20.2l-66,66c-22.5,22.5-48.2,22.5-70.7,0l-0.6,0.1l-49.2-49.6
	c-27-27.2-18.4-27.5-45-0.3l-49.4,49.7c-22.5,22.5-48,22.4-70.5-0.1l-0.1,0.1l-44.9-44.5c-33.4-33.1-22.6-32.5-56.3,1.1l-44.1,44.1
	c-22.5,22.5-48.2,21.7-70.7-0.8l-52.4-52.8c-23.3-23.4-15.8-23.8-38.9-0.6l-53,53.4c-22.5,22.5-48,22.4-70.5-0.1l-0.1,0.1
	l-50.3-50.3c-23.7-23.7-19.2-25.6-43.6-1.2l-51.5,51.5l-0.1-0.1c-22.5,22.5-48,22.6-70.5,0.1l-53.6-54c-22.2-22.4-15-22.2-37.3,0.2
	l-53.4,53.8c-22.5,22.5-48,22.4-70.5-0.1l-0.1,0.1l-48-48c-29.3-29.3-19.9-29.5-49.1-0.3l-48.3,48.3c-22.5,22.5-48.1,22.5-70.6,0
	l-53.8-54.1c-22-22.2-20.1-19-42.2,3.2l-48.4,51c-22.5,22.5-48.1,22.4-70.6,0l-49-49c-27.5-27.5-19.8-27.6-47.9,0.5l-48.5,48.5
	l-0.1-0.1c-22.5,22.5-48,22.6-70.5,0.1l-48.4-48.7c-28.8-29-19.5-28.4-48.6,0.9l-47.3,47.6v0.1c-22.5,22.5-48.3,22.4-70.7,0
	l-58.8-58.8C148.7,55.9,153,65.9,98.6,65.9c-18,0-32.8,14.8-32.8,32.8v3997.2c0,17.9,14.8,32.8,32.8,32.8h35.1
	c27.9,0,21.3,2.4,41.1-17.4l70.2-70.2c22.5-22.5,48.1-22.5,70.6,0l72.2,72.7l72.1-72.6v-0.1c22.5-22.5,48.1-22.4,70.6,0h0.1
	l72.7,72.7l72.7-72.7c22.5-22.5,48.1-22.5,70.6,0l72.2,72.7l72.1-72.6v-0.1c22.5-22.5,48.1-22.4,70.6,0h0.1l72.7,72.7l72.7-72.7
	c22.5-22.5,48.1-22.5,70.6,0l72.2,72.7l72.2-72.7c22.5-22.5,48-22.4,70.5,0h0.1l72.7,72.7l72.7-72.7c22.5-22.5,48.1-22.5,70.6,0
	l72.2,72.7l72.2-72.7c22.5-22.5,48.1-22.4,70.6,0l72.7,72.7l72.7-72.7c22.5-22.5,48.1-22.5,70.6,0L2111.3,4114.1L2111.3,4114.1z"/>
<path class="st2" d="M2529.2,2138v590.3c98.8-55.2,194.4-199.6,272.8-318.1c24.2-36.6,46.9-70.9,68.2-100.2
	c38.1-52.5,44.9-38.3-22.1-62.2C2742.2,2210.2,2635.7,2174.2,2529.2,2138z"/>
<path d="M5161.8,3776.7c-20.3,15.8-44.4-15-24.1-30.9c167.5-130.5,406.8-490.9,524.5-674.5c13.9-21.7,46.9-0.5,33,21.2
	C5574.6,3280.7,5333.8,3642.7,5161.8,3776.7L5161.8,3776.7z"/>
<path d="M1784.8,3644c-43.1,0-43.1-65.5,0-65.5h263.6c43.1,0,43.1,65.5,0,65.5H1784.8z"/>
<circle cx="2047" cy="1279" r="33.3"/>
<circle cx="1867" cy="1279" r="33.3"/>
<circle cx="1686.9" cy="1279" r="33.3"/>
<circle cx="1506.8" cy="1279" r="33.3"/>
<path d="M1326.8,1245.7c18.4,0,33.3,14.9,33.3,33.3s-14.9,33.3-33.3,33.3s-33.3-14.9-33.3-33.3
	C1293.4,1260.6,1308.4,1245.7,1326.8,1245.7z"/>
<circle cx="1146.7" cy="1279" r="33.3"/>
<circle cx="966.6" cy="1279" r="33.3"/>
<circle cx="786.5" cy="1279" r="33.3"/>
<circle cx="606.5" cy="1279" r="33.3"/>
<circle cx="426.4" cy="1279" r="33.3"/>
<path d="M389.3,3644c-43.1,0-43.1-65.5,0-65.5h846.2c43.1,0,43.1,65.5,0,65.5H389.3L389.3,3644z"/>
<path d="M389.3,3346.7c-43.1,0-43.1-65.5,0-65.5h1692.4c43.1,0,43.1,65.5,0,65.5H389.3z"/>
<path d="M389.3,3049.3c-43.1,0-43.1-65.5,0-65.5h1692.4c43.1,0,43.1,65.5,0,65.5H389.3z"/>
<path d="M389.3,2529c-43.1,0-43.1-65.5,0-65.5h1692.4c43.1,0,43.1,65.5,0,65.5H389.3z"/>
<path d="M389.3,2231.6c-43.1,0-43.1-65.5,0-65.5h1692.4c43.1,0,43.1,65.5,0,65.5H389.3z"/>
<path d="M389.3,1934.2c-43.1,0-43.1-65.5,0-65.5H1764c43.1,0,43.1,65.5,0,65.5H389.3z"/>
<path d="M383.7,870.5c-43.1,0-43.1-65.5,0-65.5h911.4c43.1,0,43.1,65.5,0,65.5H383.7z"/>
<path d="M383.7,573.1c-43.1,0-43.1-65.5,0-65.5h1703.5c43.1,0,43.1,65.5,0,65.5H383.7z"/>
<path class="st3" d="M5685.9,2514.8c-11.9,4.5-26,12.2-42,22.9c9,11.8,18,23.5,27.2,35.2c25.5,32.7,21.2,37.8,34.1-4.9
	C5714.3,2537.6,5719.9,2502.1,5685.9,2514.8z"/>
<path class="st3" d="M4863.6,3731.1c9.1-4.5,19.5-11,31.1-19.4c26.4-19.2,20.7-14.4-7-30.3c-7.7-4.4-15.4-8.9-23-13.4
	c-25.4-14.9-22.2-19.6-29.3,10.8c-3.1,13.5-5,25.4-5.5,35.6C4828.4,3742,4835.2,3745.2,4863.6,3731.1z"/>
<path class="st4" d="M4966.3,3650.7c27.1-25.6,57.1-55.9,89-89.9c212.4-226.5,487.7-599.5,611.2-888.6
	c-376.7-464.8-605.9-1009.9-962.3-1469.5c-159.3-205.4-264.4-281-536.8-290.6c-287.1-10.2-712.8,26.3-999.3,72.8
	c-204.9,33.3-463.8,168.8-638.9,278.9V1451c-2.1,62-1.4,63.5,50.7,69.3c57.8,6.5,113.9,19.5,162.7,32.5c57.1,15.2,54.9,16,115.1,5.5
	c60.8-10.6,116.2-25.6,164.8-42.5c58-20.2,106.3-43,143-64.4c-10.3-10.2-12.8-26.5-5.1-39.6c9.1-15.6,29.1-20.8,44.7-11.6
	c24,14.1,54.7,24,87,31.1c50.3,11,104.7,15,145,16.8c90,4,182.5-1.8,248.2-13.7c44.1-8,42.2-0.7,40.5-39.9
	c-0.9-20.5-1.2-41.1-1.2-61.9c0-43.1,65.5-43.1,65.5,0c0,72.3,4.3,141.8,20.9,206.6c11.4,44.5,28.7,87.3,54.6,128.1
	c23.9,37.8,20.3,35.8,41.7-3.4c34.5-63.2,57.7-137.2,71.6-220.2c7.1-42.4,71.6-31.7,64.5,10.8c-15.1,89.9-40.6,170.7-78.8,240.7
	c-15.5,28.4-33,54.9-52.8,79.5c-36.3,45.2-54.7,43.2,15.5,39.7c98.9-4.9,190.6-24.4,253.7-68.8c35.1-24.7,72.8,28.8,37.6,53.5
	c-74.4,52.4-178,75.1-288.2,80.6c-65.8,3.3-132.2,0.6-197.7-5.5c-86.2-8-168-21.8-233.5-35.2c-78.9-16.1-159.5-36.1-237.3-57.3
	c-1.1-0.2-2.1-0.5-3.2-0.9c-161-44.1-309.3-93.4-404-124.9c-121.7-40.5-255.9-80.6-385-78c-193.7,4-322.9,149.5-198.4,326.3
	c44.5,63.2,123,118.2,235.6,156.8c142.2,48.8,284.6,96.2,425.8,147.5c508.2,184.5,887.2,414.2,1247.3,801.4
	C4344.6,3186.9,4576.6,3436.3,4966.3,3650.7L4966.3,3650.7z"/>
<path d="M2947.1,1880.3c18.7-17.8,45.7,10.6,27,28.4c-22.7,21.7-29,53.2-31.8,83.3c-2.3,25.7-41.3,22.1-39-3.5
	C2907.1,1948,2916.7,1909.3,2947.1,1880.3L2947.1,1880.3z"/>
<path d="M2340.7,1899c-18.1-18.4,9.9-45.9,28-27.5c46.2,47.1,152.9,97.7,227.2,76.5c83.8-23.9,113.8-185.9,58.5-232.1
	c-7.9-6.6-18-11.4-30.8-13.9c-25.4-4.9-17.8-43.5,7.5-38.6c19.6,3.9,35.6,11.7,48.5,22.4c80.7,67.4,40.6,269.1-74.6,300.2
	C2516.2,2010,2398.3,1957.7,2340.7,1899L2340.7,1899z"/>
<path class="st2" d="M3261,1713.9c51.3-42.8,133.6-106.2,231.7-167.1c89.3-55.5,29.6-29.4-58.3-33.3c-52.6-2.4-104.5-8-150.7-17.8
	c-55.3-11.6-33.8-18.2-81.9,10.2c-40.7,24-94.1,49.6-157.7,71.7c-19.2,6.7-39.3,13.1-60.3,19c-66,18.7-70.5,10.4,0.5,33.5
	C3063.8,1655.9,3159.6,1685.8,3261,1713.9L3261,1713.9z"/>
<path class="st2" d="M3670.3,1522.7c-50.1,24.5-98.3,51.8-143.1,79.6c-74.8,46.4-139.8,94.2-188.2,132.5
	c57.5,14.8,115.8,28.6,173.2,40.4c61.9,12.6,138.8,25.7,219.7,33.5c53.9,5.2,50.3,5.9,91.3-33.4c30.5-29.3,19.9-25.5-3.1-58.2
	c-37.1-52.7-57.3-103.4-72.2-161.6C3729.3,1483.2,3749.1,1484.2,3670.3,1522.7z"/>
<path class="st2" d="M3894.9,2899.9c59.8-38.7,44.1-34.5-4-74.7c-83.7-69.8-165.4-136.7-249.4-199.9c-64.7-48.6-42-44.5-86.5,15.9
	c-95.8,130-180.9,228.1-89.5,397.5c119.1,220.7,363,129.6,317.9-69.4c-7.7-34.1-23.1-67.3-41.6-96.8c-22.7-36.3,32.6-70.9,55.3-34.6
	c10.4,16.6,19.8,33.8,27.8,51.6C3845.9,2936,3837.7,2936.8,3894.9,2899.9L3894.9,2899.9z"/>
<path class="st2" d="M3066.8,2372.1c-10.4,27-19.6,55-27.8,83.1c-29.6,100.6-46.1,242.4-80,333.6c-8,21.6-15.8,51.7-20.2,84.4
	c-26.5,195.8,130.3,232,238.7,101.2c40.4-48.7,68.9-133.8,98.6-222.4c27.1-81,55.2-164.7,95.7-232.3c33.3-55.6,43-38.7-25.7-71.5
	c-71.2-34-148.1-67-226.9-98.5C3076.2,2332.4,3083.9,2327.6,3066.8,2372.1L3066.8,2372.1z"/>
</svg>
