<svg height="496pt" viewBox="0 0 496 496" width="496pt" xmlns="http://www.w3.org/2000/svg" xmlns:xlink="http://www.w3.org/1999/xlink"><linearGradient id="a" gradientUnits="userSpaceOnUse" x1="248" x2="248" y1="496" y2="0"><stop offset="0" stop-color="#9f2fff"/><stop offset="1" stop-color="#0bb1d3"/></linearGradient><path d="m496 80v32h-16v-32c0-4.40625-3.59375-8-8-8h-32v-16h32c13.230469 0 24 10.769531 24 24zm-16 272c0 4.40625-3.59375 8-8 8h-32v16h32c13.230469 0 24-10.769531 24-24v-32h-16zm-456 24h32v-16h-32c-4.40625 0-8-3.59375-8-8v-32h-16v32c0 13.230469 10.769531 24 24 24zm-8-296c0-4.40625 3.59375-8 8-8h32v-16h-32c-13.230469 0-24 10.769531-24 24v32h16zm464 64h16v48h-16v-16h-136.207031c5.078125 6.703125 8.207031 14.960938 8.207031 24v48c0 19.585938-14.152344 35.929688-32.761719 39.34375l-13.535156 123.511719c-1.511719 12.105469-11.75 21.144531-23.832031 21.144531h-1.871094v8c0 13.230469-10.769531 24-24 24v8c0 4.40625 3.59375 8 8 8h78.945312c2.789063 0 5.421876-1.488281 6.855469-3.878906l14.679688-24.464844c4.3125-7.191406 12.191406-11.65625 20.574219-11.65625h110.945312v16h-110.945312c-2.789063 0-5.421876 1.488281-6.855469 3.878906l-14.679688 24.464844c-4.3125 7.191406-12.191406 11.65625-20.574219 11.65625h-78.945312c-13.230469 0-24-10.769531-24-24v-8c-13.230469 0-24-10.769531-24-24v-8h-1.871094c-12.082031 0-22.320312-9.039062-23.816406-21.023438l-13.550781-123.632812c-18.609375-3.414062-32.761719-19.757812-32.761719-39.34375v-48c0-9.039062 3.128906-17.296875 8.207031-24h-136.207031v16h-16v-48h16v16h144.449219c-10.648438-16.625-16.449219-35.984375-16.449219-56 0-57.34375 46.65625-104 104-104s104 46.65625 104 104c0 20.015625-5.800781 39.375-16.449219 56h144.449219zm-320-40c0 20.6875 7.3125 40.542969 20.519531 56.351562 1.167969-.105468 2.289063-.351562 3.480469-.351562h56v-1.136719c-13.761719-3.574219-24-16-24-30.863281h16c0 8.824219 7.175781 16 16 16s16-7.175781 16-16-7.175781-16-16-16c-17.648438 0-32-14.351562-32-32 0-14.863281 10.238281-27.289062 24-30.863281v-17.136719h16v17.136719c13.761719 3.574219 24 16 24 30.863281h-16c0-8.824219-7.175781-16-16-16s-16 7.175781-16 16 7.175781 16 16 16c17.648438 0 32 14.351562 32 32 0 14.863281-10.238281 27.289062-24 30.863281v1.136719h56c1.191406 0 2.3125.246094 3.480469.351562 13.207031-15.808593 20.519531-35.664062 20.519531-56.351562 0-48.519531-39.480469-88-88-88s-88 39.480469-88 88zm48 96c0 4.40625 3.59375 8 8 8h8v-32h-16zm32 8h16v-32h-16zm32 0h8c4.40625 0 8-3.59375 8-8v-24h-16zm-8 224h-32v8c0 4.40625 3.59375 8 8 8h16c4.40625 0 8-3.59375 8-8zm72-232c0-13.230469-10.769531-24-24-24h-8v24c0 13.230469-10.769531 24-24 24h-64c-13.230469 0-24-10.769531-24-24v-24h-8c-13.230469 0-24 10.769531-24 24v48c0 13.230469 10.769531 24 24 24h7.167969l15.03125 137.113281c.488281 3.878907 3.898437 6.886719 7.929687 6.886719h67.75c4.023438 0 7.441406-3.007812 7.9375-7.007812l13.253906-120.992188h-95.070312v-16h104c13.230469 0 24-10.769531 24-24zm-112 168v-48c0-8.824219 7.175781-16 16-16h16c8.824219 0 16 7.175781 16 16v48c0 8.824219-7.175781 16-16 16h-16c-8.824219 0-16-7.175781-16-16zm32.007812 0v-16h-16.007812v16zm-16.007812-48v16h16v-16zm0 0" fill="url(#a)"/></svg>